<svg width="12" height="7" viewBox="0 0 12 7" fill="none" xmlns="http://www.w3.org/2000/svg">
<path d="M6.55559 6.7556L11.2699 1.7901C11.4172 1.63489 11.5 1.42439 11.5 1.20489C11.5 0.985399 11.4172 0.774894 11.2699 0.619688C11.1225 0.464482 10.9226 0.377289 10.7143 0.377289C10.5059 0.377289 10.306 0.464482 10.1587 0.619688L6 5.00002L1.84133 0.619688C1.69397 0.464482 1.49412 0.377289 1.28573 0.377289C1.07734 0.377289 0.877488 0.464482 0.730135 0.619688C0.582782 0.774894 0.5 0.985399 0.5 1.20489C0.5 1.42439 0.582782 1.63489 0.730135 1.7901L5.4444 6.7556C5.51736 6.83245 5.60398 6.89341 5.69931 6.93501C5.79464 6.9766 5.89681 6.998 6 6.998C6.10318 6.998 6.20535 6.9766 6.30068 6.93501C6.39601 6.89341 6.48263 6.83245 6.55559 6.7556Z" fill="#A7A89A"/>
</svg>
