<svg width="12" height="8" viewBox="0 0 12 8" fill="none" xmlns="http://www.w3.org/2000/svg">
<path d="M10.7143 7.61868C10.6111 7.61882 10.5088 7.59748 10.4135 7.55588C10.3182 7.51429 10.2315 7.45326 10.1587 7.3763L6 2.99597L1.84133 7.3763C1.69397 7.53151 1.49412 7.6187 1.28573 7.6187C1.07734 7.6187 0.877488 7.53151 0.730135 7.3763C0.582782 7.2211 0.5 7.01059 0.5 6.7911C0.5 6.5716 0.582782 6.3611 0.730135 6.20589L5.4444 1.24039C5.51736 1.16354 5.60398 1.10258 5.69931 1.06099C5.79464 1.01939 5.89681 0.997986 6 0.997986C6.10318 0.997986 6.20535 1.01939 6.30068 1.06099C6.39601 1.10258 6.48263 1.16354 6.55559 1.24039L11.2699 6.20589C11.3797 6.32163 11.4546 6.4691 11.4849 6.62964C11.5152 6.79018 11.4997 6.95658 11.4402 7.1078C11.3807 7.25903 11.28 7.38828 11.1508 7.47922C11.0216 7.57015 10.8697 7.61869 10.7143 7.61868Z" fill="#A7A89A"/>
</svg>
