<svg xmlns="http://www.w3.org/2000/svg" width="28" height="28" viewBox="0 0 28 28"><g><g><g/><g><g><g><path fill="#364966" d="M25 3a3 3 0 0 1 3 3v19a3 3 0 0 1-3 3H3a3 3 0 0 1-3-3V6a3 3 0 0 1 3-3h3V1a1 1 0 0 1 2 0v2h12V1a1 1 0 1 1 2 0v2zm1 9H2v13a1 1 0 0 0 1 1h22a1 1 0 0 0 1-1zm0-2V6a1 1 0 0 0-1-1h-3v2a1 1 0 0 1-2 0V5H8v2a1 1 0 1 1-2 0V5H3a1 1 0 0 0-1 1v4z"/></g></g></g><g><g><g><path fill="#364966" d="M8 14H6a1 1 0 1 0 0 2h2a1 1 0 1 0 0-2z"/></g></g></g><g><g><g><path fill="#364966" d="M15 14h-2a1 1 0 1 0 0 2h2a1 1 0 1 0 0-2z"/></g></g></g><g><g><g><path fill="#364966" d="M22 14h-2a1 1 0 1 0 0 2h2a1 1 0 1 0 0-2z"/></g></g></g><g><g><g><path fill="#364966" d="M8 18H6a1 1 0 1 0 0 2h2a1 1 0 1 0 0-2z"/></g></g></g><g><g><g><path fill="#364966" d="M15 18h-2a1 1 0 1 0 0 2h2a1 1 0 1 0 0-2z"/></g></g></g><g><g><g><path fill="#364966" d="M22 18h-2a1 1 0 1 0 0 2h2a1 1 0 1 0 0-2z"/></g></g></g><g><g><g><path fill="#364966" d="M8 22H6a1 1 0 1 0 0 2h2a1 1 0 1 0 0-2z"/></g></g></g><g><g><g><path fill="#364966" d="M15 22h-2a1 1 0 1 0 0 2h2a1 1 0 1 0 0-2z"/></g></g></g><g><g><g><path fill="#364966" d="M22 22h-2a1 1 0 1 0 0 2h2a1 1 0 1 0 0-2z"/></g></g></g></g></g></svg>