<svg xmlns="http://www.w3.org/2000/svg" width="13" height="15" viewBox="0 0 13 15"><g><g><path fill="#a7a89a" d="M1.438 4.466a1.342 1.342 0 0 1 .344-2.64h1.799v-.438A1.38 1.38 0 0 1 4.97 0h3.12a1.38 1.38 0 0 1 1.391 1.388v.439h1.799a1.342 1.342 0 0 1 .344 2.639v8.655c0 .511-.188.992-.515 1.336A1.73 1.73 0 0 1 9.855 15H3.208a1.73 1.73 0 0 1-1.255-.543 1.938 1.938 0 0 1-.515-1.336zm8.417 9.831c.6 0 1.067-.516 1.067-1.176V4.497H2.14v8.624c0 .66.468 1.176 1.068 1.176zM4.283 1.827H8.78v-.44A.676.676 0 0 0 8.09.704h-3.12a.677.677 0 0 0-.688.685zm-2.501.702a.632.632 0 1 0 0 1.265h9.499a.632.632 0 1 0 0-1.265z"/></g></g></svg>