<svg xmlns="http://www.w3.org/2000/svg" width="15" height="15" viewBox="0 0 15 15"><g><g><path fill="#a7a89a" d="M14.396 1.718a2.066 2.066 0 0 1 0 2.92l-8.508 8.508c-.004.009-.012.013-.017.017 0 .004-.004.004-.008.008-.012.008-.025.02-.037.029l-.041.025a.015.015 0 0 1-.008.004.148.148 0 0 1-.037.016c-.005.005-.005.005-.009.005L.546 14.98a.415.415 0 0 1-.425-.1.406.406 0 0 1-.099-.42l1.726-5.19c0-.005.004-.005.004-.009l.012-.033c.004-.004.004-.008.008-.012.009-.012.013-.02.02-.033 0-.004.005-.004.005-.008.008-.013.02-.025.029-.037.004 0 .004-.005.008-.009l.017-.016 7.777-7.774.73-.735a2.066 2.066 0 0 1 2.92 0zm-1.606 3.37L9.917 2.213 2.726 9.406l2.873 2.873zM1.062 13.934l3.77-1.255-2.51-2.51zm12.752-9.876a1.242 1.242 0 0 0 .004-1.75l-1.123-1.123a1.238 1.238 0 0 0-1.75 0l-.442.442L13.377 4.5z"/></g></g></svg>